<svg xmlns="http://www.w3.org/2000/svg" viewBox="0 0 64 64">
  <defs>
    <linearGradient id="signal" x1="8" y1="8" x2="56" y2="56" gradientUnits="userSpaceOnUse">
      <stop stop-color="#F25F4B"/>
      <stop offset="1" stop-color="#315AE8"/>
    </linearGradient>
  </defs>
  <rect width="64" height="64" rx="18" fill="#14213D"/>
  <path d="M31 14c-8 0-14 6-14 14 0 5 2 8 6 11v7c0 3 3 5 6 5h3V14h-1Zm2 0c8 0 14 6 14 14 0 5-2 8-6 11v7c0 3-3 5-6 5h-2V14Z" fill="url(#signal)"/>
  <path d="m16 31 8-5 6 9 8-13 10 8" fill="none" stroke="#FFF4C7" stroke-width="3" stroke-linecap="round" stroke-linejoin="round"/>
</svg>
